<svg xmlns="http://www.w3.org/2000/svg" width="64" height="64" viewBox="0 0 64 64">
    <g
       transform="matrix(0.0010713684436077567,0,0,0.0010713684436077567,-1.969175199351057,-2.458790578079802)"
       fill="#ffffff">
        <defs xmlns="http://www.w3.org/2000/svg"/>
        <g xmlns="http://www.w3.org/2000/svg">
            <path class="fil0"
                  d="M27294 29012c936,0 1784,379 2397,993 520,520 871,1207 967,1974l20029 -17 0 -2 2 0 0 2c26,0 56,-22 82,-52 32,-37 51,-76 51,-105l0 -2 2 0c-4,-1127 -89,-2121 -249,-3094 -160,-972 -396,-1925 -703,-2967 -1453,-4935 -4482,-9196 -8504,-12202 -1030,-770 -2125,-1457 -3276,-2052l-2832 6010c250,111 476,267 667,458 401,401 649,954 649,1566 0,611 -248,1165 -649,1566 -401,401 -954,649 -1566,649 -611,0 -1165,-248 -1566,-649 -401,-401 -649,-954 -649,-1566 0,-611 248,-1165 649,-1566 401,-401 954,-649 1566,-649 132,0 262,12 388,34l2870 -6092c-3117,-1524 -6621,-2380 -10325,-2380 -955,0 -1772,28 -2561,108 -787,80 -1565,213 -2448,423 -38,9 -15,3 0,-1l0 0 -7 2c-115,29 -203,107 -256,208 -60,115 -77,262 -41,413l0 0 3 12 -1 0 -3 -12 -1 0 3 12c2,7 2,7 1,4l4881 19000c141,-18 284,-27 430,-27zm25678 20509c163,-236 322,-475 478,-716l-713 -460c-152,234 -307,466 -465,696l700 480zm-1201 -13455c600,0 1144,243 1538,637 394,394 637,937 637,1538 0,600 -243,1144 -637,1538 -394,394 -937,637 -1538,637 -600,0 -1144,-243 -1538,-637 -394,-394 -637,-937 -637,-1538 0,-600 243,-1144 637,-1538 394,-394 937,-637 1538,-637zm938 1237c-240,-240 -571,-388 -938,-388 -366,0 -698,148 -938,388 -240,240 -388,571 -388,938 0,366 148,698 388,938 240,240 571,388 938,388 366,0 698,-148 938,-388 240,-240 388,-571 388,-938 0,-366 -148,-698 -388,-938zm-39240 -28252c600,0 1144,243 1538,637 394,394 637,937 637,1538 0,600 -243,1144 -637,1538 -394,394 -937,637 -1538,637 -600,0 -1144,-243 -1538,-637 -394,-394 -637,-937 -637,-1538 0,-600 243,-1144 637,-1538 394,-394 937,-637 1538,-637zm938 1237c-240,-240 -571,-388 -938,-388 -366,0 -698,148 -938,388 -240,240 -388,571 -388,938 0,366 148,698 388,938 240,240 571,388 938,388 366,0 698,-148 938,-388 240,-240 388,-571 388,-938 0,-366 -148,-698 -388,-938zm-1949 33167c477,0 909,194 1222,506 313,313 506,745 506,1222 0,342 -100,661 -271,930 1395,1359 3000,2513 4771,3405 1805,910 3782,1548 5882,1855 125,-237 285,-452 473,-640 484,-484 1152,-783 1890,-783 738,0 1407,299 1890,783 484,484 783,1152 783,1890 0,738 -299,1407 -783,1890 -484,484 -1152,783 -1890,783 -738,0 -1407,-299 -1890,-783 -484,-484 -783,-1152 -783,-1890 0,-148 12,-294 35,-435 -2136,-329 -4148,-986 -5989,-1914 -1859,-937 -3543,-2150 -5006,-3581 -249,139 -536,218 -841,218 -477,0 -909,-193 -1222,-506 -313,-313 -506,-745 -506,-1222 0,-395 133,-759 355,-1050 -1422,-1953 -2497,-4164 -3146,-6534 -649,-2370 -873,-4898 -593,-7486 396,-3652 1744,-6970 3771,-9733 2039,-2779 4764,-4997 7898,-6429 -137,-759 5,-1516 360,-2154 382,-686 1010,-1234 1803,-1499l-14 -53 0 0c-1,-4 -2,-11 -6,-25l0 0 -2 0c-84,-351 -36,-707 117,-1000 160,-307 435,-543 796,-636 12,-3 18,-5 21,-6l0 0c-8,1 -35,8 0,-1 908,-217 1723,-355 2560,-440 837,-85 1677,-115 2644,-115 3833,0 7460,885 10687,2461l1263 -2680c-219,-128 -419,-284 -597,-462 -535,-535 -866,-1274 -866,-2090 0,-816 331,-1555 866,-2090 535,-535 1274,-866 2090,-866 816,0 1555,331 2090,866 535,535 866,1274 866,2090 0,816 -331,1555 -866,2090 -535,535 -1274,866 -2090,866 -356,0 -698,-63 -1014,-179l-1269 2692c1202,620 2346,1337 3421,2140 4166,3113 7303,7528 8809,12643 316,1073 560,2058 726,3070 166,1012 254,2049 259,3230l2 0 0 2c0,223 -98,472 -264,662 -172,197 -421,339 -719,340l0 2 -2 0 0 -2 -2952 3c-208,2673 -855,5298 -1912,7760 -684,1595 -1541,3122 -2561,4550l5098 4298c504,-399 1140,-637 1833,-637 816,0 1555,331 2090,866 535,535 866,1274 866,2090 0,816 -331,1555 -866,2090 -535,535 -1274,866 -2090,866 -816,0 -1555,-331 -2090,-866 -535,-535 -866,-1274 -866,-2090 0,-634 200,-1222 540,-1703l-5020 -4232c-464,603 -958,1187 -1481,1750 -764,820 -1487,1532 -2272,2189 -786,658 -1634,1262 -2646,1867l-3 2 0 1c-192,114 -456,157 -702,111 -258,-48 -507,-189 -659,-444l-1 -2 -1 0 -6694 -11287c-328,43 -663,65 -1003,65 -2113,0 -4027,-857 -5411,-2242 -899,-899 -1575,-2020 -1939,-3274l-3454 949c-141,38 -286,-45 -324,-185 -38,-141 45,-286 185,-324l3463 -952c-113,-524 -173,-1067 -173,-1625 0,-628 76,-1239 219,-1824l-5559 -1451c-141,-37 -226,-181 -190,-322 37,-141 181,-226 322,-190l5570 1454c278,-867 706,-1667 1254,-2370 161,-206 332,-403 512,-592l-3365 -3322c-104,-102 -106,-270 -3,-374 102,-104 270,-106 374,-3l3373 3330c806,-733 1769,-1296 2832,-1633l-2192 -8533c-760,138 -1519,-3 -2159,-359 -580,-323 -1062,-823 -1358,-1450 -2963,1373 -5541,3482 -7474,6118 -1941,2647 -3233,5824 -3612,9322 -269,2483 -55,4906 566,7175 619,2259 1641,4366 2994,6230 217,-98 457,-152 710,-152zm622 1106c-159,-159 -379,-258 -622,-258 -243,0 -463,98 -622,258 -159,159 -258,379 -258,622 0,243 98,463 258,622 159,159 379,258 622,258 243,0 463,-98 622,-258 159,-159 258,-379 258,-622 0,-243 -98,-463 -258,-622zm39000 -5817l29 -111 37 -144 36 -145 36 -145 35 -145 34 -146 -827 -190 -33 141 -34 140 -34 140 -35 140 -36 139 -29 111 821 214zm-38470 -28117l-99 63 -74 48 -74 49 -74 49 -74 49 -74 49 -74 50 -73 50 -103 71 483 698 98 -67 71 -48 71 -48 71 -48 72 -48 72 -47 72 -47 72 -47 96 -62 -459 -714zm-2773 2052l-95 81 -67 58 -67 58 -67 58 -67 59 -66 59 -66 59 -66 59 -87 79 573 627 83 -75 64 -57 64 -57 64 -57 64 -57 65 -56 65 -56 65 -56 93 -79 -551 -646zm-2473 2405l-31 34 -59 66 -59 67 -59 67 -59 67 -58 67 -58 67 -58 68 -58 68 -68 81 652 544 64 -77 56 -66 56 -65 56 -65 56 -65 57 -65 57 -65 57 -64 88 -98 -632 -566zm-2128 2716l-40 58 -50 74 -50 74 -49 75 -49 75 -49 75 -49 75 -48 75 -48 76 -40 63 718 453 39 -61 47 -73 47 -73 47 -73 47 -73 48 -72 48 -72 48 -72 48 -72 40 -58 -703 -475zm-1741 2978l-56 113 -40 81 -39 81 -39 82 -39 82 -39 82 -38 82 -38 82 -43 94 774 349 41 -89 37 -80 37 -79 37 -79 38 -79 38 -79 38 -79 38 -79 55 -110 -761 -377zm-1321 3187l-15 44 -29 87 -29 87 -28 88 -28 88 -28 88 -28 88 -27 88 -27 88 -23 76 813 243 22 -73 26 -85 26 -85 27 -85 27 -85 27 -85 28 -85 28 -85 43 -128 -805 -270zm-878 3336l-24 124 -17 93 -17 93 -16 93 -16 93 -16 93 -15 93 -15 93 -12 75 839 131 11 -72 15 -90 15 -90 15 -90 16 -90 16 -90 16 -90 17 -90 23 -121 -834 -159zm-423 3424l-4 76 -6 108 -5 108 -5 108 -4 107 -4 107 -3 107 -4 141 849 17 3 -134 3 -104 4 -104 4 -104 4 -104 5 -104 5 -104 4 -76 -848 -45zm37 3449l3 33 9 105 9 105 9 105 10 105 10 105 11 104 11 104 10 94 843 -95 -10 -90 -11 -101 -10 -101 -10 -101 -10 -101 -9 -101 -9 -101 -11 -134 -846 67zm503 3413l27 123 23 101 23 101 23 101 24 100 24 100 25 100 29 115 822 -211 -27 -108 -24 -97 -23 -97 -23 -97 -23 -97 -22 -97 -22 -97 -26 -120 -829 181zm961 3314l22 61 36 96 36 96 36 96 37 95 37 95 37 95 38 95 31 77 787 -319 -30 -74 -37 -92 -36 -92 -36 -92 -35 -92 -35 -92 -35 -93 -34 -93 -22 -61 -796 293zm1400 3153l35 65 48 90 48 89 48 89 49 89 49 89 50 89 50 88 39 68 737 -422 -37 -65 -48 -85 -48 -86 -48 -86 -47 -86 -47 -86 -47 -86 -46 -87 -35 -65 -750 398zm1811 2936l39 54 59 82 59 82 60 82 60 81 60 81 61 81 61 81 53 69 674 -516 -51 -67 -59 -78 -59 -78 -58 -78 -58 -79 -58 -79 -58 -79 -57 -79 -39 -54 -690 495zm2188 2666l37 40 70 73 70 73 70 73 70 73 71 72 71 72 71 72 70 70 599 -602 -68 -68 -69 -69 -69 -70 -68 -70 -68 -70 -68 -71 -68 -71 -67 -71 -37 -40 -617 583zm2526 2349l38 31 79 64 79 63 80 63 80 63 80 63 80 62 81 62 81 62 512 -677 -78 -60 -78 -60 -78 -60 -78 -60 -77 -61 -77 -61 -77 -61 -77 -62 -38 -31 -534 660zm8261 4474c274,88 549,171 826,250l231 -817c-268,-76 -534,-156 -799,-241l-258 808zm3348 829c284,50 567,95 852,136l119 -840c-276,-40 -550,-83 -824,-132l-148 836zm3431 374l116 5 151 5 151 4 150 3 150 3 142 2 7 -849 -137 -2 -145 -2 -146 -3 -146 -4 -146 -5 -116 -5 -32 848zm3448 -87l94 -9 147 -15 147 -16 146 -16 146 -17 146 -18 33 -4 -111 -841 -28 4 -141 17 -141 17 -141 16 -142 15 -142 14 -94 9 82 845zm3404 -553l148 -35 141 -34 141 -35 140 -36 140 -37 128 -34 -221 -819 -123 33 -135 35 -136 35 -136 34 -136 33 -143 34 193 827zm3299 -1010l148 -57 133 -52 133 -53 133 -54 132 -55 121 -51 -330 -782 -117 49 -128 53 -128 52 -129 51 -129 51 -144 55 303 793zm3134 -1447l117 -64 124 -69 124 -70 124 -71 123 -71 137 -81 -435 -729 -129 76 -119 69 -120 68 -120 68 -120 67 -117 64 411 743zm2908 -1854l77 -57 114 -85 113 -86 113 -86 112 -87 112 -87 44 -35 -528 -664 -40 32 -108 85 -109 84 -109 83 -110 83 -110 82 -77 57 506 682zm2634 -2226l40 -38 102 -99 101 -100 101 -101 100 -101 100 -102 67 -69 -611 -589 -64 66 -96 98 -97 98 -97 97 -98 97 -98 96 -40 38 591 609zm2312 -2559l14 -18 88 -113 87 -113 87 -114 86 -114 86 -115 75 -102 -684 -502 -72 98 -83 111 -83 110 -84 110 -84 109 -85 109 -14 18 667 525zm1947 -2848l78 -133 72 -125 71 -125 71 -126 70 -126 64 -116 -746 -405 -61 112 -68 122 -68 122 -69 121 -70 121 -75 129 732 430zm1544 -3086l13 -31 56 -135 55 -135 54 -136 53 -136 53 -137 35 -92 -794 -299 -33 88 -51 132 -52 132 -52 131 -53 131 -54 130 -13 31 784 326zm-29580 -30892c-560,203 -1004,598 -1276,1086 -299,536 -393,1186 -211,1824l0 1c182,638 604,1142 1140,1441 455,254 993,360 1536,275l-1189 -4627zm-6338 40401c799,0 1522,324 2045,847 523,523 847,1247 847,2045 0,799 -324,1522 -847,2045 -523,523 -1247,847 -2045,847 -799,0 -1522,-324 -2045,-847 -523,-523 -847,-1247 -847,-2045 0,-799 324,-1522 847,-2045 523,-523 1247,-847 2045,-847zm1445 1447c-370,-370 -881,-599 -1445,-599 -564,0 -1075,229 -1445,599 -370,370 -599,881 -599,1445 0,564 229,1075 599,1445 370,370 881,599 1445,599 564,0 1075,-229 1445,-599 370,-370 599,-881 599,-1445 0,-564 -229,-1075 -599,-1445zm11726 -1635c-330,-330 -786,-534 -1290,-534 -504,0 -960,204 -1290,534 -330,330 -534,786 -534,1290 0,504 204,960 534,1290 330,330 786,534 1290,534 504,0 960,-204 1290,-534 330,-330 534,-786 534,-1290 0,-504 -204,-960 -534,-1290zm23461 -1087c-381,-381 -908,-617 -1490,-617 -582,0 -1109,236 -1490,617 -381,381 -617,908 -617,1490 0,582 236,1109 617,1490 381,381 908,617 1490,617 582,0 1109,-236 1490,-617 381,-381 617,-908 617,-1490 0,-582 -236,-1109 -617,-1490zm-16355 -31691c-247,-247 -588,-400 -966,-400 -377,0 -719,153 -966,400 -247,247 -400,588 -400,966 0,377 153,719 400,966 247,247 588,400 966,400 377,0 719,-153 966,-400 247,-247 400,-588 400,-966 0,-377 -153,-719 -400,-966zm6899 -14796c-381,-381 -908,-617 -1490,-617 -582,0 -1109,236 -1490,617 -381,381 -617,908 -617,1490 0,582 236,1109 617,1490 381,381 908,617 1490,617 582,0 1109,-236 1490,-617 381,-381 617,-908 617,-1490 0,-582 -236,-1109 -617,-1490zm-13045 36059l6539 11025 0 0c15,22 47,37 85,44 50,9 94,6 118,-8l0 0c968,-578 1781,-1157 2536,-1790 757,-634 1456,-1322 2196,-2116 1863,-2000 3336,-4286 4388,-6736 1012,-2358 1635,-4869 1841,-7428l-11949 10c-105,1947 -937,3700 -2230,4993 -958,958 -2169,1663 -3524,2007zm15556 -32889l-122 -84 -98 -66 -99 -66 -99 -66 -99 -65 -99 -65 -100 -65 -461 713 97 63 97 63 96 64 96 64 96 64 96 65 120 82 480 -700zm9115 41210c146,-247 290,-495 429,-746l-742 -412c-136,244 -275,486 -417,725l730 432zm837 -1504c132,-255 262,-511 387,-769l-764 -370c-122,251 -247,500 -376,748l753 391zm752 -1548c118,-262 233,-525 343,-789l-784 -326c-108,257 -219,513 -334,767l774 348zm664 -1588c103,-268 202,-536 298,-807l-800 -283c-93,263 -190,525 -290,786l793 304zm574 -1622c88,-273 172,-548 253,-823l-815 -237c-78,268 -160,534 -245,800l808 260zm482 -1653c72,-278 142,-556 206,-836l-827 -190c-63,272 -130,543 -200,812l822 213zm388 -1676c57,-281 110,-564 159,-846l-837 -144c-47,275 -99,549 -154,822l832 168zm294 -1696c41,-284 78,-569 111,-854l-843 -97c-32,277 -68,554 -108,829l840 121zm199 -1710c25,-286 47,-572 64,-859l-847 -49c-17,278 -37,556 -62,834l846 74zm104 -1718c9,-287 15,-573 16,-860l-849 -4c-2,279 -7,558 -16,837l848 27zm9 -1721l-2 -68 -3 -127 -4 -127 -4 -126 -5 -126 -5 -126 -6 -126 -2 -34 -848 45 2 31 6 123 5 123 5 123 4 123 4 123 3 123 2 68 849 -21zm-85 -1719l-9 -110 -10 -125 -11 -125 -11 -125 -12 -124 -12 -124 -13 -122 -844 89 12 119 12 121 12 121 11 121 11 121 10 121 9 110 846 -69zm-180 -1710l-18 -135 -17 -123 -18 -123 -18 -122 -19 -122 -19 -122 -17 -104 -838 136 16 100 19 119 18 119 18 119 17 119 17 119 18 132 841 -113zm-275 -1699l-27 -141 -24 -121 -24 -120 -25 -120 -25 -120 -26 -120 -22 -101 -829 183 21 98 25 117 25 117 24 117 24 117 23 117 27 138 834 -160zm-370 -1681l-33 -132 -30 -118 -31 -118 -31 -118 -32 -118 -32 -117 -31 -111 -817 229 30 108 31 114 31 114 30 114 30 115 29 115 32 129 823 -206zm-464 -1659l-34 -110 -37 -115 -37 -115 -37 -115 -38 -115 -38 -115 -45 -133 -802 277 43 127 37 111 37 112 36 112 36 112 36 112 34 110 810 -255zm-556 -1628l-30 -79 -43 -113 -43 -112 -43 -112 -44 -112 -44 -112 -45 -112 -20 -50 -786 321 19 47 44 108 43 109 43 109 42 109 42 109 41 109 30 79 794 -299zm-647 -1594l-18 -42 -49 -110 -49 -109 -49 -109 -50 -109 -50 -109 -51 -108 -41 -87 -767 363 40 84 49 105 49 106 48 106 48 106 48 106 47 107 18 42 777 -342zm-736 -1557l-53 -105 -55 -106 -55 -106 -55 -106 -56 -105 -56 -105 -70 -129 -745 407 67 123 55 102 54 102 54 103 53 103 53 103 53 105 756 -387zm-821 -1512l-33 -56 -60 -103 -60 -102 -61 -102 -61 -102 -62 -102 -62 -101 -43 -70 -722 447 41 67 60 99 60 99 60 99 59 99 59 100 58 100 33 56 733 -427zm-904 -1464l-70 -106 -66 -99 -66 -99 -66 -98 -67 -98 -67 -98 -81 -117 -695 488 77 112 65 95 65 95 65 96 64 96 64 96 68 103 709 -466zm-985 -1412l-38 -52 -71 -95 -71 -95 -71 -94 -72 -94 -72 -94 -73 -94 -53 -68 -668 524 51 65 71 91 70 91 70 92 70 92 69 92 69 92 38 52 681 -506zm-1060 -1354l-76 -92 -76 -91 -76 -90 -77 -90 -77 -90 -77 -89 -100 -114 -637 561 95 109 75 87 75 87 75 88 74 88 74 88 74 89 653 -542zm-1135 -1294l-36 -39 -81 -86 -81 -86 -81 -86 -82 -85 -82 -85 -82 -85 -69 -70 -606 594 66 68 80 83 80 83 79 83 79 83 79 84 78 84 36 39 621 -578zm-1205 -1230l-75 -72 -85 -82 -86 -81 -86 -81 -86 -81 -87 -80 -87 -80 -35 -32 -571 628 32 30 85 78 84 78 84 78 84 79 83 79 83 79 75 72 588 -613zm-1270 -1160l-29 -25 -90 -77 -90 -77 -90 -76 -91 -76 -91 -76 -91 -75 -87 -71 -537 658 84 69 89 73 88 74 88 74 88 74 88 75 87 75 29 25 554 -643zm-1334 -1089l-72 -56 -94 -72 -94 -71 -95 -71 -95 -71 -95 -70 -96 -70 -47 -34 -498 687 45 32 93 68 93 69 92 69 92 69 92 70 92 70 72 56 516 -674zm-15470 24880c-95,767 -447,1455 -967,1975 -613,613 -1461,993 -2397,993 -936,0 -1784,-379 -2397,-993 -613,-613 -993,-1461 -993,-2397 0,-936 379,-1784 993,-2397 325,-325 715,-584 1149,-756l-853 -3322c-1308,424 -2441,1232 -3268,2292 -899,1152 -1435,2604 -1435,4182 0,1879 762,3580 1993,4811 1231,1231 2932,1993 4811,1993 1879,0 3580,-762 4811,-1993 1139,-1139 1876,-2680 1980,-4392l-3428 3zm-8675 -22789l1 4 -1 -4 0 0zm-821 208c-9,-33 -2,-9 1,0l-1 0zm1 0c1,3 1,4 1,0l-1 0zm928 -1667c3,-1 2,-1 0,0l0 0zm195 823c9,-2 14,-4 0,0l0 0zm6573 38241c290,-28 578,-65 866,-110l-132 -839c-271,43 -544,77 -818,104l83 845zm-8245 -28531l-93 49 -55 29 -54 29 -54 30 -54 30 -54 30 -54 30 -54 30 -54 31 -54 31 -53 31 -53 31 -75 44 436 728 69 -41 51 -30 51 -29 51 -29 51 -29 51 -29 51 -29 51 -28 103 -56 51 -28 52 -28 90 -47 -395 -751zm-2889 1940l-66 56 -47 40 -47 41 -47 41 -47 41 -47 41 -46 41 -46 41 -46 42 -46 42 -46 42 -46 42 -74 69 582 617 69 -65 87 -80 44 -40 44 -39 44 -39 44 -39 44 -39 44 -39 44 -39 45 -38 45 -38 64 -54 -548 -648zm-2401 2521l-54 71 -38 50 -37 50 -37 50 -37 51 -37 51 -37 51 -36 51 -36 51 -36 51 -36 51 -36 52 -54 79 704 474 50 -73 34 -49 34 -49 34 -49 34 -48 34 -48 35 -48 35 -48 35 -48 35 -48 35 -47 35 -47 52 -68 -676 -513zm-1782 2996l-23 51 -26 58 -25 58 -25 58 -25 58 -25 59 -24 59 -24 59 -24 59 -24 59 -23 59 -23 59 -23 59 -19 50 794 300 18 -47 22 -56 22 -56 22 -56 22 -56 22 -55 23 -55 23 -55 23 -55 23 -55 24 -55 24 -55 24 -55 23 -51 -776 -344zm-1037 3330l-16 91 -11 64 -11 64 -11 65 -10 65 -10 65 -10 65 -10 65 -14 97 -13 97 -12 97 -4 32 843 100 3 -26 12 -91 12 -91 13 -91 9 -61 9 -61 9 -61 10 -61 10 -61 10 -61 11 -61 16 -87 -835 -152zm-226 3478l1 29 5 94 6 94 6 94 7 94 8 94 8 93 9 93 9 93 10 92 844 -92 -9 -87 -9 -88 -8 -88 -8 -88 -7 -88 -7 -88 -6 -89 -5 -89 -5 -89 -1 -29 -848 44zm579 3439l18 61 26 88 27 88 27 88 28 87 28 87 29 87 29 87 30 86 25 71 800 -285 -23 -66 -28 -82 -28 -82 -27 -82 -27 -82 -26 -82 -26 -83 -25 -83 -25 -83 -18 -61 -814 241zm1354 3211l18 32 45 79 46 79 46 78 46 78 47 78 47 77 48 77 48 77 60 94 712 -463 -55 -85 -46 -72 -45 -73 -45 -73 -44 -73 -44 -74 -43 -74 -43 -74 -43 -74 -18 -32 -738 419zm2052 2818l54 58 62 66 62 66 63 66 63 65 64 65 64 64 64 64 65 64 47 46 589 -611 -44 -42 -61 -60 -61 -60 -60 -61 -60 -61 -60 -62 -59 -62 -59 -62 -59 -63 -54 -58 -621 578zm2640 2274l41 28 76 51 77 51 77 50 77 50 78 49 78 49 78 48 79 48 75 45 434 -729 -70 -42 -74 -45 -74 -46 -74 -46 -73 -46 -73 -47 -73 -47 -72 -48 -72 -48 -41 -28 -474 704zm3094 1608l73 27 88 33 88 32 89 32 89 31 89 31 90 30 90 29 90 29 38 12 252 -811 -33 -10 -85 -27 -85 -28 -85 -28 -84 -29 -84 -29 -84 -30 -83 -30 -83 -31 -73 -27 -297 795zm3377 853c288,38 578,70 868,91l64 -846c-222,-18 -441,-39 -662,-66 -53,-6 -105,-13 -158,-20l-112 841zm3717 -16973c-460,-460 -1095,-744 -1797,-744 -702,0 -1337,284 -1797,744 -460,460 -744,1095 -744,1797 0,702 284,1337 744,1797 460,460 1095,744 1797,744 702,0 1337,-284 1797,-744 460,-460 744,-1095 744,-1797 0,-702 -284,-1337 -744,-1797z"
                  style="fill: #000000; fill-rule: nonzero;"/>
        </g>
    </g>
</svg>
